<?xml version="1.0" encoding="UTF-8"?>
<svg id="Layer_1" data-name="Layer 1" xmlns="http://www.w3.org/2000/svg" viewBox="0 0 241 24.52">
  <defs>
    <style>
      .cls-1 {
        fill: #4285f4;
      }

      .cls-2 {
        fill: #f79e1b;
      }

      .cls-2, .cls-3, .cls-4, .cls-5, .cls-6 {
        fill-rule: evenodd;
      }

      .cls-3, .cls-7 {
        fill: #191c1f;
      }

      .cls-8 {
        fill: #1434cb;
      }

      .cls-9 {
        fill: #e94235;
      }

      .cls-10 {
        fill: #34a853;
      }

      .cls-11 {
        fill: #fff;
      }

      .cls-12 {
        fill: #fabb05;
      }

      .cls-5 {
        fill: #ff5f00;
      }

      .cls-6 {
        fill: #eb001b;
      }

      .cls-13 {
        fill: #3c4043;
      }
    </style>
  </defs>
  <g>
    <rect class="cls-11" x="1" width="36" height="24" rx="3" ry="3"/>
    <path class="cls-11" d="M34,0H4C2.34,0,1,1.34,1,3v18c0,1.66,1.34,3,3,3h30c1.66,0,3-1.34,3-3V3c0-1.66-1.34-3-3-3Z"/>
    <path class="cls-5" d="M16.16,17.04h5.68V6.96h-5.68v10.09Z"/>
    <path class="cls-6" d="M16.52,12c0-.97.22-1.94.65-2.81.43-.87,1.05-1.64,1.83-2.23-.96-.74-2.1-1.21-3.3-1.33-1.2-.13-2.42.08-3.51.6-1.09.52-2.01,1.34-2.67,2.36-.65,1.02-1.01,2.2-1.02,3.41.02,1.21.37,2.39,1.02,3.41.65,1.02,1.57,1.84,2.67,2.36,1.09.52,2.31.73,3.51.6,1.2-.13,2.35-.59,3.3-1.33-.77-.6-1.4-1.36-1.83-2.23-.43-.87-.65-1.84-.65-2.81Z"/>
    <path class="cls-2" d="M29.3,15.98v-.25h-.07l-.08.17-.08-.17h-.07v.25h.05v-.19l.07.16h.05l.07-.16v.19h.05ZM28.88,15.98v-.21h.08v-.04h-.21v.04h.08v.21h.05ZM29.5,12c-.02,1.21-.37,2.39-1.02,3.41-.65,1.02-1.57,1.84-2.67,2.36-1.09.52-2.31.73-3.51.6-1.2-.13-2.35-.59-3.3-1.33.77-.6,1.4-1.36,1.83-2.23.43-.87.65-1.84.65-2.81s-.22-1.94-.65-2.81c-.43-.87-1.05-1.64-1.83-2.23.96-.74,2.1-1.21,3.3-1.33,1.2-.13,2.42.08,3.51.6,1.09.52,2.01,1.34,2.67,2.36.65,1.02,1.01,2.2,1.02,3.41Z"/>
    <path class="cls-4" d="M34,1H4c-1.1,0-2,.9-2,2v18c0,1.1.9,2,2,2h30c1.1,0,2-.9,2-2V3c0-1.1-.9-2-2-2ZM4,0h30c1.66,0,3,1.34,3,3v18c0,1.66-1.34,3-3,3H4c-1.66,0-3-1.34-3-3V3C1,1.34,2.34,0,4,0Z"/>
  </g>
  <g>
    <rect class="cls-11" x="52" width="36" height="24" rx="3" ry="3"/>
    <path class="cls-11" d="M85,0h-30c-1.66,0-3,1.34-3,3v18c0,1.66,1.34,3,3,3h30c1.66,0,3-1.34,3-3V3c0-1.66-1.34-3-3-3Z"/>
    <path class="cls-8" d="M69.3,7.66l-1.86,8.7h-2.25l1.86-8.7h2.25ZM78.77,13.28l1.19-3.27.68,3.27h-1.87ZM81.29,16.36h2.08l-1.82-8.7h-1.92c-.43,0-.8.25-.96.64l-3.38,8.07h2.36l.47-1.3h2.89l.27,1.3ZM75.41,13.52c.01-2.3-3.17-2.42-3.15-3.45,0-.31.3-.64.96-.73.32-.04,1.21-.08,2.22.39l.39-1.85c-.54-.2-1.24-.38-2.11-.38-2.23,0-3.79,1.18-3.81,2.88-.01,1.25,1.12,1.95,1.97,2.37.88.43,1.17.7,1.17,1.08,0,.58-.7.84-1.35.85-1.13.02-1.79-.31-2.31-.55l-.41,1.91c.53.24,1.5.45,2.5.46,2.37,0,3.91-1.17,3.92-2.98ZM66.08,7.66l-3.65,8.7h-2.38l-1.8-6.95c-.11-.43-.2-.58-.53-.76-.54-.29-1.43-.57-2.22-.74l.05-.25h3.83c.49,0,.93.32,1.04.89l.95,5.04,2.34-5.92h2.37Z"/>
    <path class="cls-4" d="M85,1h-30c-1.11,0-2,.9-2,2v18c0,1.1.89,2,2,2h30c1.1,0,2-.9,2-2V3c0-1.1-.9-2-2-2ZM55,0h30c1.66,0,3,1.34,3,3v18c0,1.66-1.34,3-3,3h-30c-1.66,0-3-1.34-3-3V3c0-1.66,1.34-3,3-3Z"/>
  </g>
  <g>
    <rect class="cls-11" x="103" y=".52" width="36" height="24" rx="3" ry="3"/>
    <path class="cls-11" d="M136,.52h-30c-1.66,0-3,1.34-3,3v18c0,1.66,1.34,3,3,3h30c1.66,0,3-1.34,3-3V3.52c0-1.66-1.34-3-3-3Z"/>
    <path class="cls-7" d="M127.2,9.52h-1.1v5.95h1.1v-5.95Z"/>
    <path class="cls-7" d="M135,11.11v.92h-1.14v2.08c0,.17.04.32.1.38.06.07.17.1.33.1h.71v.92h-.97c-.43,0-.75-.1-.95-.31-.21-.2-.31-.51-.31-.91v-4.39h1.1v1.2h1.14Z"/>
    <path class="cls-7" d="M118.63,14.31l1.14-3.21h1.15l-1.64,4.37h-1.3l-1.64-4.37h1.15l1.14,3.21Z"/>
    <path class="cls-7" d="M130.84,14.01c.09-.2.13-.44.13-.71v-2.19h1.1v4.37h-.96l-.1-.51c-.13.14-.3.27-.49.38-.22.12-.5.18-.85.18-.24,0-.47-.03-.68-.1-.21-.07-.41-.18-.57-.33-.16-.15-.3-.36-.39-.62-.1-.25-.14-.57-.14-.95v-2.42h1.1v2.31c0,.4.08.7.23.9.15.2.39.3.7.3.22,0,.41-.05.56-.15.15-.1.28-.25.36-.45Z"/>
    <path class="cls-3" d="M124.42,11.34c-.35-.19-.76-.28-1.22-.28s-.87.09-1.22.28c-.35.19-.62.45-.82.78-.19.33-.29.73-.29,1.17s.1.83.29,1.17c.19.33.47.6.82.78.35.19.76.28,1.22.28s.88-.09,1.22-.28c.35-.19.62-.45.81-.78.19-.33.29-.73.29-1.16s-.1-.84-.29-1.17c-.19-.33-.47-.6-.81-.78ZM123.84,14.46c-.18.11-.39.17-.64.17s-.46-.06-.64-.17c-.18-.11-.32-.27-.42-.47-.1-.2-.15-.43-.15-.69s.05-.5.15-.7c.1-.2.24-.36.42-.47.18-.11.39-.17.64-.17s.46.06.64.17c.18.11.32.27.42.47.1.2.15.43.15.7s-.05.49-.15.69c-.1.2-.24.36-.42.47Z"/>
    <path class="cls-7" d="M107,10.99h1.14v4.48h-1.14v-4.48Z"/>
    <path class="cls-7" d="M111.73,11.25c0-.95-.8-1.72-1.78-1.72h-2.95v.96h2.81c.44,0,.81.34.82.75,0,.21-.08.4-.23.55-.15.15-.35.23-.57.23h-1.09s-.07.03-.07.07v.85s0,.03.01.04l1.85,2.5h1.36l-1.86-2.5c.94-.05,1.69-.81,1.69-1.72Z"/>
    <path class="cls-3" d="M114.08,11.06c.44,0,.83.09,1.16.26.33.17.59.41.78.72.19.31.28.68.29,1.11,0,.06,0,.12,0,.19,0,.06-.01.13-.02.19v.02h-3.31v.04c.01.22.06.42.16.59.09.16.23.29.4.38.17.09.37.14.59.14.26,0,.48-.06.67-.18.17-.11.29-.27.35-.47v-.02h1.1v.03c-.06.27-.18.51-.34.73-.18.23-.42.41-.71.55-.29.14-.63.2-1.01.2-.48,0-.89-.09-1.24-.28-.35-.18-.62-.45-.81-.78-.19-.33-.29-.73-.29-1.16s.09-.85.28-1.18c.19-.33.45-.6.79-.78.34-.19.73-.28,1.17-.28ZM115.18,12.78c-.04-.28-.16-.49-.35-.65-.19-.16-.45-.24-.75-.24-.18,0-.35.04-.51.11-.15.07-.28.18-.39.31-.1.13-.16.28-.18.46h2.17Z"/>
    <path class="cls-4" d="M136,1.52h-30c-1.1,0-2,.9-2,2v18c0,1.1.9,2,2,2h30c1.1,0,2-.9,2-2V3.52c0-1.1-.9-2-2-2ZM106,.52h30c1.66,0,3,1.34,3,3v18c0,1.66-1.34,3-3,3h-30c-1.66,0-3-1.34-3-3V3.52c0-1.66,1.34-3,3-3Z"/>
  </g>
  <g>
    <path class="cls-11" d="M238,.52h-30c-1.66,0-3,1.34-3,3v18c0,1.66,1.34,3,3,3h30c1.66,0,3-1.34,3-3V3.52c0-1.66-1.34-3-3-3Z"/>
    <rect class="cls-11" x="205" y=".52" width="36" height="24" rx="3" ry="3"/>
    <path class="cls-13" d="M221.79,12.34v2.92h-.93v-7.22h2.46c.62,0,1.16.21,1.59.62.44.42.67.92.67,1.52s-.22,1.12-.67,1.53c-.43.41-.96.61-1.59.61h-1.53ZM221.79,8.94v2.52h1.55c.37,0,.68-.13.92-.37.25-.25.37-.55.37-.88s-.12-.63-.37-.87c-.24-.26-.55-.38-.92-.38h-1.55Z"/>
    <path class="cls-13" d="M228.01,10.17c.69,0,1.23.18,1.62.55.4.37.6.87.6,1.51v3.04h-.88v-.69h-.04c-.38.57-.89.85-1.53.85-.55,0-1-.16-1.37-.48-.37-.32-.55-.72-.55-1.21,0-.51.19-.92.58-1.22.39-.3.9-.45,1.55-.45.55,0,1.01.1,1.36.3v-.21c0-.32-.13-.59-.38-.82-.26-.23-.56-.34-.9-.34-.52,0-.93.22-1.23.66l-.82-.51c.45-.65,1.12-.98,2-.98ZM226.81,13.75c0,.24.1.44.31.6.2.16.44.24.72.24.39,0,.74-.14,1.04-.43.3-.29.46-.63.46-1.02-.29-.23-.69-.34-1.21-.34-.38,0-.69.09-.94.27-.26.19-.38.42-.38.68Z"/>
    <path class="cls-13" d="M235.27,10.33l-3.09,7.11h-.96l1.15-2.49-2.04-4.62h1.01l1.47,3.55h.02l1.43-3.55h1.01Z"/>
    <path class="cls-1" d="M218.1,11.76c0-.3-.03-.59-.08-.87h-3.89v1.59h2.24c-.09.53-.38.98-.83,1.28v1.03h1.33c.78-.72,1.22-1.79,1.22-3.04Z"/>
    <path class="cls-10" d="M215.55,13.76c-.37.25-.85.4-1.41.4-1.08,0-2-.73-2.32-1.71h-1.38v1.07c.68,1.35,2.08,2.28,3.7,2.28,1.12,0,2.06-.37,2.74-1l-1.33-1.03Z"/>
    <path class="cls-12" d="M211.69,11.66c0-.28.05-.54.13-.79v-1.07h-1.38c-.28.56-.44,1.19-.44,1.86s.16,1.3.44,1.86l1.38-1.07c-.08-.25-.13-.52-.13-.79Z"/>
    <path class="cls-9" d="M214.14,9.16c.61,0,1.16.21,1.59.62l1.18-1.18c-.72-.67-1.65-1.08-2.77-1.08-1.62,0-3.02.93-3.7,2.28l1.38,1.07c.33-.98,1.24-1.71,2.32-1.71Z"/>
    <path class="cls-4" d="M238,1.52h-30c-1.11,0-2,.9-2,2v18c0,1.1.89,2,2,2h30c1.1,0,2-.9,2-2V3.52c0-1.1-.9-2-2-2ZM208,.52h30c1.66,0,3,1.34,3,3v18c0,1.66-1.34,3-3,3h-30c-1.66,0-3-1.34-3-3V3.52c0-1.66,1.34-3,3-3Z"/>
  </g>
  <g>
    <rect class="cls-11" x="154" y=".52" width="36" height="24" rx="3" ry="3"/>
    <path class="cls-11" d="M187,.52h-30c-1.66,0-3,1.34-3,3v18c0,1.66,1.34,3,3,3h30c1.66,0,3-1.34,3-3V3.52c0-1.66-1.34-3-3-3Z"/>
    <path d="M163.15,8.01c.32-.4.54-.94.48-1.49-.47.02-1.04.31-1.38.71-.3.34-.56.91-.49,1.43.53.05,1.05-.26,1.39-.65Z"/>
    <path d="M163.63,8.77c-.77-.05-1.42.43-1.78.43s-.93-.41-1.53-.4c-.79.01-1.52.46-1.92,1.17-.82,1.42-.22,3.52.58,4.68.39.57.86,1.2,1.47,1.18.58-.02.81-.38,1.52-.38s.91.38,1.53.37c.64-.01,1.04-.57,1.43-1.14.45-.65.63-1.28.64-1.32-.01-.01-1.23-.48-1.25-1.89-.01-1.18.96-1.74,1.01-1.77-.55-.81-1.41-.9-1.7-.93Z"/>
    <path d="M170.3,7.18c1.67,0,2.82,1.15,2.82,2.82s-1.18,2.83-2.87,2.83h-1.84v2.93h-1.33V7.18h3.22ZM168.41,11.71h1.53c1.16,0,1.82-.62,1.82-1.71s-.66-1.7-1.81-1.7h-1.53v3.41Z"/>
    <path d="M173.47,13.98c0-1.09.84-1.77,2.33-1.85l1.71-.1v-.48c0-.7-.47-1.11-1.25-1.11-.74,0-1.21.36-1.32.92h-1.21c.07-1.13,1.03-1.96,2.58-1.96s2.49.8,2.49,2.06v4.31h-1.23v-1.03h-.03c-.36.7-1.15,1.14-1.97,1.14-1.22,0-2.08-.76-2.08-1.88ZM177.51,13.41v-.49l-1.54.09c-.77.05-1.2.39-1.2.93s.45.9,1.14.9c.9,0,1.6-.62,1.6-1.43Z"/>
    <path d="M179.95,18.06v-1.04c.09.02.31.02.42.02.59,0,.92-.25,1.11-.89,0-.01.11-.38.11-.39l-2.26-6.26h1.39l1.58,5.09h.02l1.58-5.09h1.36l-2.34,6.58c-.54,1.52-1.15,2-2.45,2-.11,0-.43-.01-.52-.03Z"/>
    <path class="cls-4" d="M187,1.52h-30c-1.1,0-2,.9-2,2v18c0,1.1.9,2,2,2h30c1.1,0,2-.9,2-2V3.52c0-1.1-.9-2-2-2ZM157,.52h30c1.66,0,3,1.34,3,3v18c0,1.66-1.34,3-3,3h-30c-1.66,0-3-1.34-3-3V3.52c0-1.66,1.34-3,3-3Z"/>
  </g>
</svg>